<svg width="512" height="512" viewBox="0 0 512 512" fill="none" xmlns="http://www.w3.org/2000/svg">
<path d="M414.025 180.775C447.329 153.572 435.825 99.7762 394.211 88.6272C383.337 85.714 372.08 86.3199 361.761 90.2507L328.695 32.9788C315.24 9.67266 281.869 9.05505 267.541 31.7788C226.871 96.286 172.689 151.15 108.363 192.784C104.7 195.15 103.343 200.04 105.51 204.02C105.858 204.657 160.628 299.51 160.991 300.139C163.346 304.218 168.562 305.619 172.648 303.262C176.729 300.906 178.127 295.686 175.771 291.605L124.41 202.643C185.746 161.639 240.068 107.354 281.978 40.8809C289.474 28.9905 306.897 29.3596 313.914 41.5124L432.313 246.585C439.338 258.754 430.915 274.012 416.892 274.558C338.216 277.624 261.186 297.747 190.76 333.767C190.46 333.92 110.612 380.028 105.113 383.202C90.8398 391.443 72.5247 386.535 64.2855 372.262L21.0621 297.394C12.8218 283.122 17.7297 264.806 32.0021 256.566L84.0236 226.531C88.1048 224.175 89.5032 218.956 87.1469 214.875C84.7906 210.792 79.5702 209.395 75.4901 211.751L23.4685 241.786C1.04662 254.731 -6.66344 283.505 6.28195 305.928L49.5065 380.794C62.453 403.218 91.227 410.926 113.649 397.981L115.617 396.845L168.983 489.277C176.648 502.554 193.598 507.102 206.882 499.433L225.599 488.626C238.88 480.959 243.422 464.008 235.754 450.727L197.933 385.218C195.576 381.137 190.357 379.738 186.276 382.095C182.195 384.451 180.796 389.67 183.153 393.752L220.974 459.26C223.925 464.371 222.177 470.895 217.066 473.845L198.349 484.652C193.238 487.602 186.714 485.854 183.764 480.744L130.398 388.311L198.725 348.862C265.587 314.7 339.969 294.633 417.557 291.611C444.447 290.563 460.529 261.318 447.093 238.051L414.025 180.775ZM411.588 121.835C420.013 136.428 416.987 154.536 405.324 165.703L370.46 105.315C385.744 100.831 403.028 107.007 411.588 121.835ZM495.053 83.8964L472.973 96.6444C468.889 99.0018 463.671 97.6013 461.316 93.5212C458.959 89.44 460.358 84.2207 464.44 81.8643L486.519 69.1163C490.603 66.7589 495.821 68.1595 498.176 72.2396C500.532 76.3207 499.134 81.5401 495.053 83.8964ZM400.098 35.2594L405.482 15.1672C406.703 10.6146 411.379 7.91475 415.935 9.13292C420.487 10.3532 423.188 15.0328 421.968 19.5844L416.583 39.6766C415.366 44.2175 410.698 46.9312 406.131 45.7109C401.579 44.4906 398.878 39.8121 400.098 35.2594V35.2594ZM511.707 175.017C510.685 178.829 507.237 181.343 503.469 181.343C501.924 181.343 503.005 181.519 481.162 175.666C476.609 174.446 473.907 169.767 475.128 165.215C476.348 160.662 481.028 157.963 485.579 159.18L505.673 164.564C510.224 165.784 512.927 170.464 511.707 175.017Z" fill="white"/>
</svg>
